<svg width="40" height="41" viewBox="0 0 40 41" fill="none" xmlns="http://www.w3.org/2000/svg">
<path d="M20 0.712891C30.7696 0.712891 39.5 9.44334 39.5 20.2129C39.5 30.9824 30.7696 39.7129 20 39.7129C9.23045 39.7129 0.5 30.9824 0.5 20.2129C0.5 9.44334 9.23045 0.712891 20 0.712891Z" stroke="#DFDFDF"/>
<path d="M24.8941 21.5152L25.464 17.8941H21.9533V15.5404C21.9533 14.5502 22.4434 13.5827 24.0107 13.5827H25.6293V10.4992C24.6867 10.3488 23.7343 10.2675 22.7797 10.2559C19.8902 10.2559 18.0037 11.9928 18.0037 15.133V17.8941H14.8008V21.5152H18.0037V30.2736H21.9533V21.5152H24.8941Z" fill="#0A0D12"/>
</svg>
