<svg width="40" height="41" viewBox="0 0 40 41" fill="none" xmlns="http://www.w3.org/2000/svg">
<path d="M20 0.712891C30.7696 0.712891 39.5 9.44334 39.5 20.2129C39.5 30.9824 30.7696 39.7129 20 39.7129C9.23045 39.7129 0.5 30.9824 0.5 20.2129C0.5 9.44334 9.23045 0.712891 20 0.712891Z" stroke="#DFDFDF"/>
<path d="M16.6712 20.2638C16.6712 18.4213 18.164 16.9272 20.006 16.9272C21.848 16.9272 23.3416 18.4213 23.3416 20.2638C23.3416 22.1063 21.848 23.6003 20.006 23.6003C18.164 23.6003 16.6712 22.1063 16.6712 20.2638ZM14.868 20.2638C14.868 23.1023 17.1683 25.4032 20.006 25.4032C22.8437 25.4032 25.144 23.1023 25.144 20.2638C25.144 17.4253 22.8437 15.1243 20.006 15.1243C17.1683 15.1243 14.868 17.4253 14.868 20.2638ZM24.1466 14.9205C24.1465 15.1581 24.2169 15.3903 24.3487 15.5879C24.4806 15.7855 24.6681 15.9395 24.8874 16.0305C25.1068 16.1215 25.3482 16.1454 25.5811 16.0991C25.8141 16.0529 26.0281 15.9386 26.1961 15.7706C26.3641 15.6027 26.4785 15.3888 26.5249 15.1558C26.5713 14.9228 26.5477 14.6813 26.4569 14.4618C26.3661 14.2423 26.2123 14.0547 26.0148 13.9226C25.8174 13.7906 25.5853 13.7201 25.3478 13.72H25.3474C25.029 13.7201 24.7238 13.8466 24.4987 14.0717C24.2735 14.2968 24.1469 14.6021 24.1466 14.9205ZM15.9636 28.4108C14.988 28.3663 14.4578 28.2038 14.1054 28.0665C13.6383 27.8845 13.3049 27.6679 12.9545 27.3178C12.604 26.9677 12.3871 26.6346 12.206 26.1673C12.0687 25.815 11.9062 25.2845 11.8618 24.3086C11.8133 23.2536 11.8036 22.9367 11.8036 20.2639C11.8036 17.591 11.8141 17.275 11.8618 16.2191C11.9063 15.2432 12.07 14.7137 12.206 14.3604C12.3879 13.8931 12.6045 13.5597 12.9545 13.2091C13.3045 12.8586 13.6375 12.6416 14.1054 12.4604C14.4576 12.323 14.988 12.1605 15.9636 12.1161C17.0183 12.0676 17.3351 12.0579 20.006 12.0579C22.6769 12.0579 22.994 12.0684 24.0496 12.1161C25.0252 12.1606 25.5545 12.3243 25.9078 12.4604C26.3749 12.6416 26.7083 12.859 27.0587 13.2091C27.4092 13.5592 27.6253 13.8931 27.8072 14.3604C27.9445 14.7127 28.107 15.2432 28.1514 16.2191C28.1999 17.275 28.2096 17.591 28.2096 20.2639C28.2096 22.9367 28.1999 23.2527 28.1514 24.3086C28.1069 25.2845 27.9436 25.8149 27.8072 26.1673C27.6253 26.6346 27.4087 26.968 27.0587 27.3178C26.7087 27.6675 26.3749 27.8845 25.9078 28.0665C25.5556 28.2039 25.0252 28.3664 24.0496 28.4108C22.9949 28.4593 22.6781 28.469 20.006 28.469C17.3339 28.469 17.018 28.4593 15.9636 28.4108ZM15.8807 10.3155C14.8155 10.364 14.0877 10.533 13.452 10.7804C12.7937 11.0359 12.2364 11.3787 11.6795 11.9349C11.1226 12.491 10.7808 13.0494 10.5254 13.7079C10.278 14.3441 10.1091 15.0718 10.0606 16.1373C10.0113 17.2045 10 17.5457 10 20.2638C10 22.9819 10.0113 23.323 10.0606 24.3902C10.1091 25.4558 10.278 26.1834 10.5254 26.8197C10.7808 27.4778 11.1227 28.0368 11.6795 28.5927C12.2363 29.1486 12.7937 29.4909 13.452 29.7472C14.0889 29.9946 14.8155 30.1635 15.8807 30.212C16.9482 30.2606 17.2887 30.2727 20.006 30.2727C22.7233 30.2727 23.0644 30.2614 24.1313 30.212C25.1966 30.1635 25.9239 29.9946 26.56 29.7472C27.2179 29.4909 27.7756 29.1489 28.3325 28.5927C28.8894 28.0365 29.2305 27.4778 29.4866 26.8197C29.734 26.1834 29.9037 25.4557 29.9514 24.3902C29.9999 23.3222 30.0112 22.9819 30.0112 20.2638C30.0112 17.5457 29.9999 17.2045 29.9514 16.1373C29.9029 15.0717 29.734 14.3437 29.4866 13.7079C29.2305 13.0498 28.8885 12.4919 28.3325 11.9349C27.7765 11.3778 27.2179 11.0359 26.5608 10.7804C25.924 10.533 25.1965 10.3632 24.1321 10.3155C23.0652 10.267 22.7241 10.2549 20.0068 10.2549C17.2895 10.2549 16.9482 10.2662 15.8807 10.3155Z" fill="#0A0D12"/>
</svg>
