<svg width="40" height="41" viewBox="0 0 40 41" fill="none" xmlns="http://www.w3.org/2000/svg">
<path d="M20 0.712891C30.7696 0.712891 39.5 9.44334 39.5 20.2129C39.5 30.9824 30.7696 39.7129 20 39.7129C9.23045 39.7129 0.5 30.9824 0.5 20.2129C0.5 9.44334 9.23045 0.712891 20 0.712891Z" stroke="#DFDFDF"/>
<path d="M15.3974 28.3185V17.5134H11.8092V28.3185H15.3978H15.3974ZM13.604 16.0384C14.8551 16.0384 15.634 15.2087 15.634 14.1718C15.6105 13.1112 14.8551 12.3047 13.6278 12.3047C12.3997 12.3047 11.5977 13.1112 11.5977 14.1717C11.5977 15.2086 12.3762 16.0383 13.5805 16.0383H13.6038L13.604 16.0384ZM17.3836 28.3185H20.9716V22.2851C20.9716 21.9626 20.995 21.6392 21.0898 21.4089C21.3491 20.7634 21.9395 20.0952 22.931 20.0952C24.229 20.0952 24.7486 21.086 24.7486 22.5387V28.3185H28.3365V22.1232C28.3365 18.8044 26.5665 17.2601 24.2058 17.2601C22.2703 17.2601 21.4203 18.3428 20.948 19.0803H20.9719V17.5138H17.3838C17.4306 18.5274 17.3835 28.3189 17.3835 28.3189L17.3836 28.3185Z" fill="#0A0D12"/>
</svg>
