<svg width="40" height="41" viewBox="0 0 40 41" fill="none" xmlns="http://www.w3.org/2000/svg">
<path d="M20 0.712891C30.7696 0.712891 39.5 9.44334 39.5 20.2129C39.5 30.9824 30.7696 39.7129 20 39.7129C9.23045 39.7129 0.5 30.9824 0.5 20.2129C0.5 9.44334 9.23045 0.712891 20 0.712891Z" stroke="#DFDFDF"/>
<path d="M26.2768 14.4653C26.1441 14.3967 26.0149 14.3215 25.8898 14.24C25.5258 13.9994 25.192 13.7158 24.8958 13.3955C24.1545 12.5473 23.8776 11.6868 23.7756 11.0844H23.7797C23.6945 10.5843 23.7298 10.2607 23.7351 10.2607H20.3587V23.3167C20.3587 23.492 20.3587 23.6652 20.3513 23.8364C20.3513 23.8577 20.3492 23.8774 20.348 23.9003C20.348 23.9097 20.348 23.9195 20.346 23.9294C20.346 23.9318 20.346 23.9343 20.346 23.9368C20.3104 24.4052 20.1602 24.8577 19.9087 25.2545C19.6572 25.6513 19.312 25.9802 18.9035 26.2123C18.4778 26.4545 17.9963 26.5815 17.5065 26.5809C15.9334 26.5809 14.6584 25.2981 14.6584 23.714C14.6584 22.1298 15.9334 20.847 17.5065 20.847C17.8043 20.8468 18.1002 20.8936 18.3834 20.9859L18.3875 17.548C17.5279 17.437 16.6547 17.5053 15.823 17.7487C14.9912 17.992 14.2188 18.4051 13.5547 18.9618C12.9727 19.4675 12.4834 20.0708 12.1089 20.7446C11.9664 20.9904 11.4286 21.9778 11.3635 23.5804C11.3226 24.4901 11.5957 25.4325 11.726 25.822V25.8301C11.8079 26.0595 12.1253 26.8422 12.6426 27.502C13.0597 28.0312 13.5525 28.4962 14.1051 28.8818V28.8736L14.1133 28.8818C15.7478 29.9925 17.5602 29.9196 17.5602 29.9196C17.8739 29.9069 18.9248 29.9196 20.1183 29.354C21.442 28.727 22.1955 27.7928 22.1955 27.7928C22.677 27.2346 23.0598 26.5984 23.3276 25.9116C23.6331 25.1085 23.7351 24.1452 23.7351 23.7602V16.8338C23.776 16.8583 24.3216 17.2192 24.3216 17.2192C24.3216 17.2192 25.1075 17.7229 26.3337 18.051C27.2135 18.2844 28.3987 18.3336 28.3987 18.3336V14.9817C27.9834 15.0268 27.1402 14.8957 26.2768 14.4653Z" fill="#0A0D12" class="dark:fill-[#FDFDFD]"/>
</svg>
